HIERARCHY
ROOT Hips
{
	OFFSET 0.00000 0.00000 0.00000
	CHANNELS 6 Xposition Yposition Zposition Zrotation Yrotation Xrotation 
	JOINT LHipJoint
	{
		OFFSET 0 0 0
		CHANNELS 3 Zrotation Yrotation Xrotation
		JOINT LeftUpLeg
		{
			OFFSET 1.70593 -1.62653 0.87602
			CHANNELS 3 Zrotation Yrotation Xrotation
			JOINT LeftLeg
			{
				OFFSET 2.32330 -6.38322 0.00000
				CHANNELS 3 Zrotation Yrotation Xrotation
				JOINT LeftFoot
				{
					OFFSET 2.45016 -6.73177 0.00000
					CHANNELS 3 Zrotation Yrotation Xrotation
					JOINT LeftToeBase
					{
						OFFSET 0.13029 -0.35798 1.96980
						CHANNELS 3 Zrotation Yrotation Xrotation
						End Site
						{
							OFFSET 0.00000 -0.00000 1.01270
						}
					}
				}
			}
		}
	}
	JOINT RHipJoint
	{
		OFFSET 0 0 0
		CHANNELS 3 Zrotation Yrotation Xrotation
		JOINT RightUpLeg
		{
			OFFSET -1.80599 -1.62652 0.87602
			CHANNELS 3 Zrotation Yrotation Xrotation
			JOINT RightLeg
			{
				OFFSET -2.45375 -6.74162 0.00000
				CHANNELS 3 Zrotation Yrotation Xrotation
				JOINT RightFoot
				{
					OFFSET -2.45828 -6.75406 0.00000
					CHANNELS 3 Zrotation Yrotation Xrotation
					JOINT RightToeBase
					{
						OFFSET -0.13801 -0.37917 1.88456
						CHANNELS 3 Zrotation Yrotation Xrotation
						End Site
						{
							OFFSET -0.00000 -0.00000 0.97281
						}
					}
				}
			}
		}
	}
	JOINT LowerBack
	{
		OFFSET 0 0 0
		CHANNELS 3 Zrotation Yrotation Xrotation
		JOINT Spine
		{
			OFFSET 0.01003 2.00576 -0.14267
			CHANNELS 3 Zrotation Yrotation Xrotation
			JOINT Spine1
			{
				OFFSET 0.00908 2.01191 0.01660
				CHANNELS 3 Zrotation Yrotation Xrotation
				JOINT Neck
				{
					OFFSET 0 0 0
					CHANNELS 3 Zrotation Yrotation Xrotation
					JOINT Neck1
					{
						OFFSET -0.05849 1.60301 0.18934
						CHANNELS 3 Zrotation Yrotation Xrotation
						JOINT Head
						{
							OFFSET 0.01775 1.59435 -0.07960
							CHANNELS 3 Zrotation Yrotation Xrotation
							End Site
							{
								OFFSET 0.01210 1.70732 -0.05248
							}
						}
					}
				}
				JOINT LeftShoulder
				{
					OFFSET 0 0 0
					CHANNELS 3 Zrotation Yrotation Xrotation
					JOINT LeftArm
					{
						OFFSET 3.15315 1.26460 0.30667
						CHANNELS 3 Zrotation Yrotation Xrotation
						JOINT LeftForeArm
						{
							OFFSET 4.97694 -0.00000 -0.00000
							CHANNELS 3 Zrotation Yrotation Xrotation
							JOINT LeftHand
							{
								OFFSET 3.14391 -0.00000 -0.00000
								CHANNELS 3 Zrotation Yrotation Xrotation
								JOINT LeftFingerBase
								{
									OFFSET 0 0 0
									CHANNELS 3 Zrotation Yrotation Xrotation
									JOINT LeftHandIndex1
									{
										OFFSET 0.59358 -0.00000 -0.00000
										CHANNELS 3 Zrotation Yrotation Xrotation
										End Site
										{
											OFFSET 0.47856 -0.00000 -0.00000
										}
									}
								}
								JOINT LThumb
								{
									OFFSET 0 0 0
									CHANNELS 3 Zrotation Yrotation Xrotation
									End Site
									{
										OFFSET 0.48587 -0.00000 0.48587
									}
								}
							}
						}
					}
				}
				JOINT RightShoulder
				{
					OFFSET 0 0 0
					CHANNELS 3 Zrotation Yrotation Xrotation
					JOINT RightArm
					{
						OFFSET -3.25568 1.35581 0.18982
						CHANNELS 3 Zrotation Yrotation Xrotation
						JOINT RightForeArm
						{
							OFFSET -4.90473 -0.00000 0.00000
							CHANNELS 3 Zrotation Yrotation Xrotation
							JOINT RightHand
							{
								OFFSET -3.21621 0.00006 -0.00004
								CHANNELS 3 Zrotation Yrotation Xrotation
								JOINT RightFingerBase
								{
									OFFSET 0 0 0
									CHANNELS 3 Zrotation Yrotation Xrotation
									JOINT RightHandIndex1
									{
										OFFSET -0.62353 -0.00000 -0.00000
										CHANNELS 3 Zrotation Yrotation Xrotation
										End Site
										{
											OFFSET -0.50270 -0.00000 -0.00000
										}
									}
								}
								JOINT RThumb
								{
									OFFSET 0 0 0
									CHANNELS 3 Zrotation Yrotation Xrotation
									End Site
									{
										OFFSET -0.51038 -0.00000 0.51038
									}
								}
							}
						}
					}
				}
			}
		}
	}
}
MOTION
Frames: 7
Frame Time: .0083333
7.190500 15.374500 -36.804000 3.929200 -2.716400 6.429400 0.000000 0.000000 0.000000 -28.511400 -1.303100 -8.083600 2.211000 9.292400 26.714400 0.704200 -11.370000 -15.863100 0.001500 0.249900 0.686500 0.000000 0.000000 0.000000 16.616500 13.514500 -38.868100 -8.101200 -16.193200 52.926300 -0.825200 7.155200 -16.241600 -0.541400 4.714400 -13.095800 -5.719000 1.005800 1.288200 -0.017000 1.150300 -3.238800 3.129800 0.758700 -4.193400 -4.980000 0.807100 -10.817700 3.375800 1.451700 11.661900 1.977600 0.725200 5.221700 0.000000 0.000000 0.000000 -87.081000 -6.781100 25.473600 13.418900 -21.897900 -2.607400 -0.000000 0.000000 -10.259300 19.740700 -8.272100 -2.955500 -7.125000 0.000000 -0.000000 -5.150100 21.213900 2.949200 0.000000 0.000000 0.000000 92.880000 -17.543800 2.440600 -10.128800 16.940700 -1.512200 0.000000 0.000000 5.335200 -23.585300 -37.440300 14.864400 7.125000 -0.000000 -0.000000 15.661000 -69.271500 -9.184600
7.193500 15.367200 -36.564500 3.989100 -2.245300 6.514200 0.000000 0.000000 0.000000 -28.509300 -0.899800 -6.662300 2.039900 8.948600 25.634800 0.670000 -11.733600 -15.659200 0.022900 -0.976500 -2.684200 0.000000 0.000000 0.000000 16.548300 13.471600 -39.565400 -7.299600 -15.579000 49.998400 -0.851100 7.234400 -16.494600 -0.470000 4.397000 -12.196200 -5.920500 0.800600 1.035500 0.069100 0.893600 -3.123400 3.350100 0.628600 -3.910300 -4.828000 0.818400 -10.743000 3.296500 1.452200 11.357700 1.923800 0.728600 5.116300 0.000000 0.000000 0.000000 -86.562100 -8.094900 27.331000 14.318500 -23.188100 -2.952300 -0.000000 0.000000 -12.239100 20.620500 -8.152400 -3.054400 -7.125000 0.000000 -0.000000 -4.512700 21.288900 2.574200 0.000000 0.000000 0.000000 93.076200 -18.095400 -0.877800 -9.303100 15.642100 -1.280600 0.000000 0.000000 10.027100 -22.967500 -37.145000 14.354400 7.125000 -0.000000 -0.000000 16.097300 -68.798300 -9.274600
7.197600 15.384900 -36.334700 3.387400 -1.726000 6.676100 0.000000 0.000000 0.000000 -27.761500 -0.396700 -5.564100 1.892900 8.639300 24.673300 0.654700 -11.770700 -15.531400 0.124000 -2.270000 -6.252400 0.000000 0.000000 0.000000 17.221400 13.439300 -39.956300 -6.415600 -14.819400 46.627900 -0.822500 7.227900 -16.220900 -0.327300 3.677100 -10.170000 -5.394200 0.671900 1.029500 0.314100 0.745600 -3.148900 3.316000 0.543600 -3.910900 -4.808800 0.739800 -10.681500 3.351000 1.334900 11.157400 1.926600 0.676900 5.048500 -0.000000 -0.000000 0.000000 -86.250000 -9.424700 28.458600 15.070600 -24.244400 -3.254900 -0.000000 0.000000 -13.337500 21.620000 -7.774100 -3.068700 -7.125000 0.000000 -0.000000 -3.784000 21.632500 2.127100 -0.000000 -0.000000 0.000000 93.431800 -18.772700 -5.806600 -8.609500 14.536000 -1.100000 0.000000 0.000000 16.618500 -19.992100 -36.731500 12.275400 7.125000 -0.000000 -0.000000 19.280200 -67.500100 -10.591700
7.196400 15.405200 -36.107400 3.013500 -1.268100 6.943500 0.000000 0.000000 0.000000 -27.109600 0.862800 -4.796800 1.754900 8.335800 23.738800 0.581200 -12.366700 -15.053000 0.332300 -3.704700 -10.247400 0.000000 0.000000 0.000000 17.499900 13.787000 -40.240500 -5.521800 -13.948400 43.031000 -0.800000 6.901200 -15.979700 -0.338100 3.736400 -10.336200 -5.102700 0.594400 1.076900 0.453200 0.649300 -3.295800 3.300100 0.496400 -4.078100 -4.736900 0.618300 -10.570500 3.405600 1.148900 11.014700 1.916200 0.592800 4.993600 0.000000 0.000000 0.000000 -85.764200 -10.793400 29.769200 15.675400 -25.078600 -3.507300 -0.000000 0.000000 -15.012100 22.115600 -7.898100 -3.196100 -7.125000 0.000000 -0.000000 -3.425500 21.469400 1.937500 0.000000 0.000000 0.000000 93.917500 -19.565500 -11.113600 -8.014400 13.576300 -0.955500 0.000000 0.000000 22.403900 -17.944400 -36.262000 10.843600 7.125000 -0.000000 -0.000000 21.152500 -66.463400 -11.158000
7.194300 15.407500 -35.867000 3.059400 -0.904500 7.117200 0.000000 0.000000 0.000000 -26.959700 2.086600 -3.783100 1.586600 7.946100 22.550400 0.493700 -12.841200 -14.413200 0.560000 -4.793300 -13.320100 0.000000 0.000000 0.000000 16.986800 14.899400 -40.191200 -4.696500 -13.033700 39.494600 -0.842100 6.261600 -16.364200 -0.291500 3.472000 -9.595800 -5.296300 0.512600 0.994700 0.548600 0.541500 -3.323600 3.513800 0.450700 -4.054700 -4.795600 0.490900 -10.696600 3.443500 0.987100 11.014800 1.927100 0.514600 5.021100 -0.000000 -0.000000 0.000000 -85.329000 -12.238500 31.183500 16.155400 -25.730900 -3.713200 -0.000000 0.000000 -16.758100 22.748600 -9.097300 -3.793000 -7.125000 0.000000 -0.000000 -2.994500 20.136200 1.783000 -0.000000 -0.000000 0.000000 94.115400 -20.431100 -14.911300 -7.567600 12.849500 -0.853400 0.000000 0.000000 25.678800 -17.806900 -36.168400 10.733500 7.125000 -0.000000 -0.000000 21.205000 -66.338200 -11.126100
7.193700 15.409000 -35.626400 3.115500 -0.534500 7.225000 0.000000 0.000000 0.000000 -26.880900 2.968300 -2.355600 1.393200 7.467400 21.107600 0.478600 -12.605800 -14.174700 0.932400 -6.151000 -17.223100 0.000000 0.000000 0.000000 16.301500 16.098000 -40.037700 -3.950800 -12.094700 36.067700 -0.864600 5.401400 -16.585700 -0.159500 2.573100 -7.092500 -5.475100 0.422500 1.082000 0.631400 0.411100 -3.407400 3.706400 0.398600 -4.182500 -4.825000 0.404000 -10.897600 3.514000 0.872200 11.217100 1.949000 0.461900 5.122000 0.000000 -0.000000 0.000000 -85.276800 -13.604500 31.346200 16.592000 -26.316700 -3.904700 -0.000000 0.000000 -16.941000 23.626400 -10.193900 -4.426900 -7.125000 0.000000 -0.000000 -2.405500 18.880900 1.499000 0.000000 -0.000000 0.000000 94.461900 -21.528400 -18.686100 -7.296000 12.405300 -0.794000 0.000000 0.000000 28.987800 -17.638700 -36.019600 10.590900 7.125000 -0.000000 -0.000000 21.230700 -66.153900 -11.050800
7.194200 15.366300 -35.390300 3.262100 -0.060600 7.415900 0.000000 0.000000 0.000000 -26.828200 3.297400 -0.623000 1.154000 6.820500 19.184600 0.175300 -13.906300 -11.738300 0.139500 -2.407600 -6.633500 0.000000 0.000000 0.000000 15.587500 16.668700 -40.424400 -3.333500 -11.216200 33.012600 -0.822400 4.767200 -16.193300 -0.089900 1.934200 -5.323800 -5.652300 0.289100 1.009100 0.620000 0.230900 -3.423200 3.803100 0.313600 -4.140700 -4.488900 0.314200 -10.978600 3.335000 0.724300 11.112500 1.826800 0.392800 5.111700 -0.000000 0.000000 0.000000 -85.054100 -15.125100 31.121900 17.285200 -27.232200 -4.217000 -0.000000 0.000000 -17.677300 23.617700 -9.972700 -4.330400 -7.125000 0.000000 -0.000000 -2.403000 19.121400 1.484600 -0.000000 0.000000 0.000000 95.073400 -22.427300 -22.227500 -7.133100 12.138100 -0.759400 0.000000 0.000000 32.192700 -17.984300 -36.083800 10.823700 7.125000 -0.000000 -0.000000 20.903700 -66.312500 -10.949800
